<svg width="8" height="14" viewBox="0 0 8 14" fill="none" xmlns="http://www.w3.org/2000/svg">
<path d="M7.922 7.303L1.466 13.878C1.386 13.959 1.268 14 1.149 14C1.03 14 0.911 13.959 0.832 13.878L0.119 13.193C0.04 13.111 0 12.99 0 12.869C0 12.748 0.04 12.627 0.119 12.547L5.545 6.979L0.119 1.453C0.04 1.372 0 1.251 0 1.129C0 1.008 0.04 0.887 0.119 0.807L0.792 0.121C0.872 0.04 0.99 0 1.109 0C1.228 0 1.347 0.04 1.426 0.122L7.882 6.699C7.961 6.777 8.001 6.9 8.001 7.021C8.001 7.142 8.001 7.221 7.922 7.303Z" fill="white"/>
</svg>
