<?xml version="1.0" encoding="utf-8"?>
<!-- Generator: Adobe Illustrator 16.0.0, SVG Export Plug-In . SVG Version: 6.00 Build 0)  -->
<!DOCTYPE svg PUBLIC "-//W3C//DTD SVG 1.1//EN" "http://www.w3.org/Graphics/SVG/1.1/DTD/svg11.dtd">
<svg version="1.1" id="Layer_1" xmlns="http://www.w3.org/2000/svg" xmlns:xlink="http://www.w3.org/1999/xlink" x="0px" y="0px"
	 width="560px" height="155px" viewBox="0 0 560 155" enable-background="new 0 0 560 155" xml:space="preserve">
<g>
	<defs>
		<rect id="SVGID_1_" width="560" height="155"/>
	</defs>
	<clipPath id="SVGID_2_">
		<use xlink:href="#SVGID_1_"  overflow="visible"/>
	</clipPath>
	<g clip-path="url(#SVGID_2_)">
		<path fill="#333333" d="M113.022,151.188c-0.1-0.168-10.185-16.979-28.683-39.252C67.277,91.391,39.364,61.865,3.274,37.87
			l-1.334-0.887l1.268-0.986c0.349-0.272,8.73-6.743,24.326-14.099c14.367-6.777,37.778-15.556,67.72-18.901
			c10.041-1.229,20.449-1.853,30.922-1.853c28.05,0,47.825,4.499,48.021,4.544l1.094,0.253l-0.254,1.124
			c-0.086,0.379-8.77,38.338-24.191,73.64c-15.402,35.266-35.717,70.127-35.92,70.475l-0.945,1.615L113.022,151.188z"/>
		<path fill="#FFFFFF" d="M126.174,2.289c28.251,0,47.777,4.516,47.777,4.516s-8.567,37.822-24.122,73.43
			c-15.553,35.612-35.86,70.354-35.86,70.354S73.992,83.525,3.877,36.909c0,0,33.818-26.332,91.495-32.774
			C106.343,2.792,116.746,2.289,126.174,2.289z M126.177,0v2.289V0c-10.517,0-20.966,0.626-31.058,1.86
			C65.034,5.222,41.508,14.046,27.068,20.857C11.363,28.265,2.887,34.809,2.533,35.084L0,37.057l2.668,1.774
			c35.993,23.931,63.836,53.388,80.855,73.886c18.432,22.2,28.449,38.903,28.549,39.069l1.916,3.214l1.889-3.232
			c0.204-0.348,20.553-35.268,35.982-70.594c15.464-35.402,24.172-73.469,24.259-73.849l0.509-2.246l-2.188-0.506
			C173.633,4.385,154.347,0,126.177,0z"/>
		<path fill="#435C66" d="M12.527,36.551c0,0,34.596-21.388,80.966-27.238c46.019-5.104,74.646,0.719,74.646,0.719
			s-9.077,35.175-19.385,61.755c-11.864,30.58-34.555,70.385-34.555,70.385S76.448,82.027,12.527,36.551z"/>
		<path fill="#3E565F" d="M18.412,36.81c0,0,29.581,22.319,51.277,44.598c21.712,22.282,43.964,54.366,43.964,54.366
			S136.739,3.586,18.412,36.81z"/>
		<path fill="#919CA7" d="M162.784,12.385c0,0-14.173-2.055-32.896-2.062c-18.722,0-29.562,1.764-29.562,1.764
			s27.541-0.671,35.969,29.774c8.418,30.45,1.141,50.916,1.141,50.916S158.973,42.513,162.784,12.385z"/>
		<path fill="#FFFFFF" d="M30.266,36.965c0,0,23.401-12.852,67.895-18.741c35.906-4.758,57.412-1.825,57.412-1.825
			s-0.935,4.912-2.669,11.505c-1.732,6.585-3.481,12.014-3.481,12.014s-11.855,0.279-20.901,0.91
			c-9.043,0.628-15.885,1.682-15.885,1.682s3.151,15.435,5.744,28.807c2.589,13.377,5.174,34.187,5.174,34.187l-9.192,19.461
			c0,0-6.077-8.346-8.459-11.45c-2.386-3.103-4.258-5.063-4.258-5.063s-2.544-20.556-5.032-34.558
			c-2.676-15.042-6.767-28.605-6.767-28.605s-11.666,1.947-18.78,3.819c-6.989,1.836-19.411,5.563-19.411,5.563
			S37.651,41.881,30.266,36.965z"/>
		<path fill="#E6E7E8" d="M34.463,36.821l18.093,15.372c0,0,13.822-4.287,23.778-6.609c10.788-2.514,15.143-2.619,15.143-2.619
			s2.27,5.072,7.377,30.514c5.108,25.451,5.041,33.785,5.041,33.785s2.713,3.219,6.363,7.768c3.653,4.555,3.562,5.652,3.562,5.652
			s10.925-21.353-2.005-36.359c-13.614-15.772-13.276-14.33-4.379-45.837C111.878,22.746,91.753,13.406,34.463,36.821z"/>
		<path fill="#435C66" d="M230.81,126.557V41.342h-28.165V26.323h73.618v15.019h-28.166v85.215H230.81z"/>
		<path fill="#435C66" d="M311.728,128.395c-6.757,0-12.866-1.559-18.329-4.674c-5.465-3.115-9.787-7.611-12.965-13.488
			c-3.181-5.873-4.769-12.949-4.769-21.227c0-8.173,1.614-15.222,4.844-21.149c3.227-5.924,7.426-10.472,12.592-13.641
			c5.164-3.165,10.581-4.75,16.243-4.75c6.656,0,12.222,1.508,16.692,4.521c4.47,3.015,7.846,7.203,10.133,12.567
			c2.285,5.364,3.428,11.571,3.428,18.621c0,3.679-0.25,6.54-0.745,8.583h-46.495c0.793,6.643,3.129,11.801,7.004,15.48
			c3.875,3.678,8.74,5.517,14.604,5.517c3.179,0,6.133-0.483,8.867-1.456c2.731-0.97,5.438-2.322,8.122-4.061l5.812,11.035
			c-3.479,2.351-7.354,4.291-11.624,5.822C320.868,127.628,316.397,128.395,311.728,128.395z M292.206,81.803h32.487
			c0-5.823-1.243-10.395-3.726-13.716c-2.484-3.319-6.21-4.981-11.177-4.981c-4.273,0-8.073,1.609-11.4,4.828
			C295.061,71.151,293,75.776,292.206,81.803z"/>
		<path fill="#435C66" d="M349.58,126.555v-9.502l34.574-51.802h-30.699V51.304h52.158v9.348l-34.424,51.803h35.616v14.1H349.58z"/>
		<path fill="#63BD5E" d="M443.167,128.395c-6.757,0-12.518-1.432-17.287-4.291c-4.769-2.859-8.694-7.101-11.772-12.721
			l11.922-9.043c1.986,3.678,4.271,6.361,6.854,8.046c2.583,1.688,5.366,2.529,8.347,2.529c4.567,0,7.995-1.429,10.282-4.291
			c2.284-2.86,3.428-7.867,3.428-15.021V26.323h17.286v68.814c0,6.03-0.993,11.571-2.979,16.629
			c-1.989,5.058-5.119,9.096-9.389,12.107C455.585,126.886,450.023,128.395,443.167,128.395z"/>
		<path fill="#63BD5E" d="M524.98,128.395c-6.558,0-12.891-1.278-19.002-3.832c-6.109-2.552-11.501-6.18-16.168-10.881
			l10.134-12.107c3.477,3.371,7.45,6.107,11.922,8.199c4.471,2.096,8.941,3.142,13.412,3.142c5.563,0,9.784-1.173,12.667-3.524
			c2.881-2.35,4.321-5.466,4.321-9.35c0-4.188-1.416-7.203-4.247-9.042c-2.832-1.839-6.434-3.729-10.804-5.671l-13.412-5.977
			c-3.181-1.431-6.285-3.27-9.314-5.519c-3.032-2.246-5.515-5.108-7.451-8.583c-1.938-3.473-2.906-7.663-2.906-12.568
			c0-5.312,1.417-10.088,4.247-14.33c2.832-4.239,6.707-7.61,11.624-10.116c4.918-2.502,10.555-3.754,16.914-3.754
			c5.664,0,11.126,1.149,16.393,3.448c5.266,2.298,9.785,5.39,13.563,9.272l-8.793,11.34c-3.08-2.655-6.334-4.75-9.761-6.283
			c-3.428-1.533-7.228-2.298-11.401-2.298c-4.57,0-8.271,1.049-11.101,3.141c-2.832,2.096-4.247,4.981-4.247,8.66
			c0,2.555,0.718,4.674,2.159,6.36c1.439,1.687,3.354,3.119,5.738,4.292c2.384,1.175,4.918,2.325,7.601,3.448l13.264,5.671
			c5.76,2.556,10.481,5.901,14.157,10.039c3.675,4.139,5.514,9.836,5.514,17.09c0,5.416-1.392,10.371-4.173,14.865
			c-2.782,4.498-6.78,8.1-11.996,10.806C538.616,127.04,532.331,128.395,524.98,128.395z"/>
	</g>
</g>
</svg>
